{
    "asset" : {
        "generator" : "Khronos glTF Blender I/O v3.4.50",
        "version" : "2.0"
    },
    "scene" : 0,
    "scenes" : [
        {
            "name" : "Scene",
            "nodes" : [
                0,
                1
            ]
        }
    ],
    "nodes" : [
        {
            "mesh" : 0,
            "name" : "\u7acb\u65b9\u4f53"
        },
        {
            "mesh" : 1,
            "name" : "\u7403\u4f53",
            "rotation" : [
                0.006455888971686363,
                0.0037082338239997625,
                0.022357221692800522,
                0.999722421169281
            ],
            "scale" : [
                0.07335163652896881,
                0.1398366391658783,
                0.06064882501959801
            ],
            "translation" : [
                0.323170006275177,
                -0.12817613780498505,
                0.7118236422538757
            ]
        }
    ],
    "materials" : [
        {
            "doubleSided" : true,
            "name" : "\u6750\u8d28.001",
            "pbrMetallicRoughness" : {
                "baseColorFactor" : [
                    0.43682923913002014,
                    0.37043696641921997,
                    0.6981919407844543,
                    0.800000011920929
                ],
                "metallicFactor" : 0,
                "roughnessFactor" : 0.5
            }
        },
        {
            "alphaMode" : "BLEND",
            "doubleSided" : true,
            "name" : "\u6750\u8d28",
            "pbrMetallicRoughness" : {
                "baseColorFactor" : [
                    0.029761550948023796,
                    0.03387218341231346,
                    0.03967937454581261,
                    0.800000011920929
                ],
                "metallicFactor" : 0,
                "roughnessFactor" : 0.5
            }
        }
    ],
    "meshes" : [
        {
            "name" : "\u7acb\u65b9\u4f53.002",
            "primitives" : [
                {
                    "attributes" : {
                        "POSITION" : 0,
                        "TEXCOORD_0" : 1,
                        "NORMAL" : 2
                    },
                    "indices" : 3,
                    "material" : 0
                }
            ]
        },
        {
            "name" : "\u7403\u4f53.001",
            "primitives" : [
                {
                    "attributes" : {
                        "POSITION" : 4,
                        "TEXCOORD_0" : 5,
                        "NORMAL" : 6
                    },
                    "indices" : 7,
                    "material" : 1
                }
            ]
        }
    ],
    "accessors" : [
        {
            "bufferView" : 0,
            "componentType" : 5126,
            "count" : 296,
            "max" : [
                0.8257494568824768,
                0.80254065990448,
                0.8314104676246643
            ],
            "min" : [
                -0.003299340605735779,
                -1.427770733833313,
                -1.0081367492675781
            ],
            "type" : "VEC3"
        },
        {
            "bufferView" : 1,
            "componentType" : 5126,
            "count" : 296,
            "type" : "VEC2"
        },
        {
            "bufferView" : 2,
            "componentType" : 5126,
            "count" : 296,
            "type" : "VEC3"
        },
        {
            "bufferView" : 3,
            "componentType" : 5123,
            "count" : 444,
            "type" : "SCALAR"
        },
        {
            "bufferView" : 4,
            "componentType" : 5126,
            "count" : 992,
            "max" : [
                1,
                1,
                1
            ],
            "min" : [
                -0.9999999403953552,
                -1,
                -0.9999998807907104
            ],
            "type" : "VEC3"
        },
        {
            "bufferView" : 5,
            "componentType" : 5126,
            "count" : 992,
            "type" : "VEC2"
        },
        {
            "bufferView" : 6,
            "componentType" : 5126,
            "count" : 992,
            "type" : "VEC3"
        },
        {
            "bufferView" : 7,
            "componentType" : 5123,
            "count" : 1440,
            "type" : "SCALAR"
        }
    ],
    "bufferViews" : [
        {
            "buffer" : 0,
            "byteLength" : 3552,
            "byteOffset" : 0,
            "target" : 34962
        },
        {
            "buffer" : 0,
            "byteLength" : 2368,
            "byteOffset" : 3552,
            "target" : 34962
        },
        {
            "buffer" : 0,
            "byteLength" : 3552,
            "byteOffset" : 5920,
            "target" : 34962
        },
        {
            "buffer" : 0,
            "byteLength" : 888,
            "byteOffset" : 9472,
            "target" : 34963
        },
        {
            "buffer" : 0,
            "byteLength" : 11904,
            "byteOffset" : 10360,
            "target" : 34962
        },
        {
            "buffer" : 0,
            "byteLength" : 7936,
            "byteOffset" : 22264,
            "target" : 34962
        },
        {
            "buffer" : 0,
            "byteLength" : 11904,
            "byteOffset" : 30200,
            "target" : 34962
        },
        {
            "buffer" : 0,
            "byteLength" : 2880,
            "byteOffset" : 42104,
            "target" : 34963
        }
    ],
    "buffers" : [
        {
            "byteLength" : 44984,
            "uri" : "data:application/octet-stream;base64,"
        }
    ]
}
